<mxfile host="app.diagrams.net" agent="Mozilla/5.0 (Windows NT 10.0; Win64; x64; rv:137.0) Gecko/20100101 Firefox/137.0" version="26.3.0">
  <diagram name="Strona-1" id="lPzKa07nO9a-BG8FSt7s">
    <mxGraphModel dx="1188" dy="656" grid="1" gridSize="10" guides="1" tooltips="1" connect="1" arrows="1" fold="1" page="1" pageScale="1" pageWidth="827" pageHeight="1169" background="none" math="0" shadow="0">
      <root>
        <mxCell id="0" />
        <mxCell id="1" parent="0" />
        <mxCell id="tZ3GSh2CdQUmDzRpD9AX-17" value="" style="html=1;shadow=0;dashed=0;fillColor=#F8F9FA;strokeColor=default;fontSize=16;fontColor=#7C7C7D;align=right;spacing=15;" vertex="1" parent="1">
          <mxGeometry x="3" y="20" width="820" height="60" as="geometry" />
        </mxCell>
        <mxCell id="tZ3GSh2CdQUmDzRpD9AX-20" value="Konto" style="text;strokeColor=default;align=center;verticalAlign=middle;spacingLeft=10;spacingRight=10;points=[[0,0.5],[1,0.5]];portConstraint=eastwest;rotatable=0;whiteSpace=wrap;html=1;fillColor=none;fontColor=#181819;fontSize=14;" vertex="1" parent="tZ3GSh2CdQUmDzRpD9AX-17">
          <mxGeometry x="713" y="10" width="60" height="40" as="geometry" />
        </mxCell>
        <mxCell id="tZ3GSh2CdQUmDzRpD9AX-22" value="Gry losowe" style="text;strokeColor=default;align=left;verticalAlign=middle;spacingLeft=5;spacingRight=10;points=[[0,0.5],[1,0.5]];portConstraint=eastwest;rotatable=0;whiteSpace=wrap;html=1;fillColor=none;fontColor=#000000;fontSize=14;" vertex="1" parent="tZ3GSh2CdQUmDzRpD9AX-17">
          <mxGeometry x="290" y="10" width="100" height="40" as="geometry" />
        </mxCell>
        <mxCell id="tZ3GSh2CdQUmDzRpD9AX-23" value="Zakłady" style="text;strokeColor=default;align=left;verticalAlign=middle;spacingLeft=5;spacingRight=10;points=[[0,0.5],[1,0.5]];portConstraint=eastwest;rotatable=0;whiteSpace=wrap;html=1;fillColor=none;fontColor=#000000;fontSize=14;strokeWidth=3;" vertex="1" parent="tZ3GSh2CdQUmDzRpD9AX-17">
          <mxGeometry x="200" y="10" width="70" height="40" as="geometry" />
        </mxCell>
        <mxCell id="tZ3GSh2CdQUmDzRpD9AX-19" value="LOGO" style="text;strokeColor=default;align=center;verticalAlign=middle;spacingLeft=10;spacingRight=10;points=[[0,0.5],[1,0.5]];portConstraint=eastwest;rotatable=0;whiteSpace=wrap;html=1;fillColor=none;fontColor=#181819;fontSize=16;strokeWidth=2;" vertex="1" parent="tZ3GSh2CdQUmDzRpD9AX-17">
          <mxGeometry x="10" y="10" width="120" height="40" as="geometry" />
        </mxCell>
        <mxCell id="tZ3GSh2CdQUmDzRpD9AX-21" value="Moje obstawienia" style="text;strokeColor=default;align=center;verticalAlign=middle;spacingLeft=10;spacingRight=10;points=[[0,0.5],[1,0.5]];portConstraint=eastwest;rotatable=0;whiteSpace=wrap;html=1;fillColor=none;fontColor=#000000;fontSize=14;" vertex="1" parent="tZ3GSh2CdQUmDzRpD9AX-17">
          <mxGeometry x="596" y="10" width="106" height="40" as="geometry" />
        </mxCell>
        <mxCell id="tZ3GSh2CdQUmDzRpD9AX-35" value="&lt;b&gt;&lt;font style=&quot;font-size: 20px&quot;&gt;Piłka nożna Niemcy - Francja 25.06&lt;/font&gt;&lt;/b&gt;&lt;br&gt;&lt;div&gt;&lt;br&gt;&lt;/div&gt;&lt;div&gt;Mecz piłki nożnej w Berlinie między Niemcami i Francją.&lt;/div&gt;" style="html=1;shadow=0;dashed=0;shape=mxgraph.bootstrap.rrect;rSize=5;strokeColor=#DFDFDF;html=1;whiteSpace=wrap;fillColor=#ffffff;fontColor=#000000;verticalAlign=top;align=left;spacing=20;spacingBottom=0;fontSize=14;spacingTop=160;" vertex="1" parent="1">
          <mxGeometry width="260" height="370" relative="1" as="geometry">
            <mxPoint x="13" y="230" as="offset" />
          </mxGeometry>
        </mxCell>
        <mxCell id="tZ3GSh2CdQUmDzRpD9AX-36" value="Obraz" style="html=1;shadow=0;dashed=0;shape=mxgraph.bootstrap.topButton;rSize=5;perimeter=none;whiteSpace=wrap;fillColor=#868E96;strokeColor=#DFDFDF;fontColor=#DEE2E6;resizeWidth=1;fontSize=18;" vertex="1" parent="tZ3GSh2CdQUmDzRpD9AX-35">
          <mxGeometry width="260" height="160" relative="1" as="geometry" />
        </mxCell>
        <mxCell id="tZ3GSh2CdQUmDzRpD9AX-37" value="Data i czas wydarzenia: 25.06.2025, 11:40" style="html=1;shadow=0;dashed=0;shape=mxgraph.bootstrap.bottomButton;rSize=5;perimeter=none;whiteSpace=wrap;fillColor=#F7F7F7;strokeColor=#DFDFDF;fontColor=#6C767D;resizeWidth=1;fontSize=13;align=left;spacing=20;" vertex="1" parent="tZ3GSh2CdQUmDzRpD9AX-35">
          <mxGeometry y="1" width="260" height="50" relative="1" as="geometry">
            <mxPoint y="-50" as="offset" />
          </mxGeometry>
        </mxCell>
        <mxCell id="tZ3GSh2CdQUmDzRpD9AX-83" value="Szczegóły" style="html=1;shadow=0;dashed=0;shape=mxgraph.bootstrap.rrect;rSize=5;strokeColor=none;strokeWidth=1;fillColor=#6C767D;fontColor=#FFFFFF;whiteSpace=wrap;align=center;verticalAlign=middle;spacingLeft=0;fontStyle=0;fontSize=16;spacing=5;" vertex="1" parent="tZ3GSh2CdQUmDzRpD9AX-35">
          <mxGeometry x="160" y="280" width="90" height="30" as="geometry" />
        </mxCell>
        <mxCell id="tZ3GSh2CdQUmDzRpD9AX-38" value="&lt;b&gt;&lt;font style=&quot;font-size: 20px&quot;&gt;Maraton w Hiszpanii 02.07&lt;/font&gt;&lt;/b&gt;&lt;br&gt;&lt;div&gt;&lt;br&gt;&lt;/div&gt;&lt;div&gt;40 kilometrowy maraton w Hiszpanii.&lt;/div&gt;" style="html=1;shadow=0;dashed=0;shape=mxgraph.bootstrap.rrect;rSize=5;strokeColor=#DFDFDF;html=1;whiteSpace=wrap;fillColor=#ffffff;fontColor=#000000;verticalAlign=top;align=left;spacing=20;spacingBottom=0;fontSize=14;spacingTop=160;" vertex="1" parent="1">
          <mxGeometry x="283" y="230" width="260" height="370" as="geometry" />
        </mxCell>
        <mxCell id="tZ3GSh2CdQUmDzRpD9AX-39" value="Obraz" style="html=1;shadow=0;dashed=0;shape=mxgraph.bootstrap.topButton;rSize=5;perimeter=none;whiteSpace=wrap;fillColor=#868E96;strokeColor=#DFDFDF;fontColor=#DEE2E6;resizeWidth=1;fontSize=18;" vertex="1" parent="tZ3GSh2CdQUmDzRpD9AX-38">
          <mxGeometry width="260" height="160" relative="1" as="geometry" />
        </mxCell>
        <mxCell id="tZ3GSh2CdQUmDzRpD9AX-40" value="Data i czas wydarzenia: 02.07.2025, 17:00" style="html=1;shadow=0;dashed=0;shape=mxgraph.bootstrap.bottomButton;rSize=5;perimeter=none;whiteSpace=wrap;fillColor=#F7F7F7;strokeColor=#DFDFDF;fontColor=#6C767D;resizeWidth=1;fontSize=13;align=left;spacing=20;" vertex="1" parent="tZ3GSh2CdQUmDzRpD9AX-38">
          <mxGeometry y="1" width="260" height="50" relative="1" as="geometry">
            <mxPoint y="-50" as="offset" />
          </mxGeometry>
        </mxCell>
        <mxCell id="tZ3GSh2CdQUmDzRpD9AX-84" value="Szczegóły" style="html=1;shadow=0;dashed=0;shape=mxgraph.bootstrap.rrect;rSize=5;strokeColor=none;strokeWidth=1;fillColor=#6C767D;fontColor=#FFFFFF;whiteSpace=wrap;align=center;verticalAlign=middle;spacingLeft=0;fontStyle=0;fontSize=16;spacing=5;" vertex="1" parent="tZ3GSh2CdQUmDzRpD9AX-38">
          <mxGeometry x="158" y="280" width="90" height="30" as="geometry" />
        </mxCell>
        <mxCell id="tZ3GSh2CdQUmDzRpD9AX-41" value="&lt;b&gt;&lt;font style=&quot;font-size: 20px&quot;&gt;Mistrzostwa Polski w Szachach 14.06&lt;/font&gt;&lt;/b&gt;&lt;br&gt;&lt;div&gt;&lt;br&gt;&lt;/div&gt;&lt;div&gt;&lt;br&gt;&lt;/div&gt;" style="html=1;shadow=0;dashed=0;shape=mxgraph.bootstrap.rrect;rSize=5;strokeColor=#DFDFDF;html=1;whiteSpace=wrap;fillColor=#ffffff;fontColor=#000000;verticalAlign=top;align=left;spacing=20;spacingBottom=0;fontSize=14;spacingTop=160;" vertex="1" parent="1">
          <mxGeometry x="555" y="230" width="260" height="370" as="geometry" />
        </mxCell>
        <mxCell id="tZ3GSh2CdQUmDzRpD9AX-42" value="Obraz" style="html=1;shadow=0;dashed=0;shape=mxgraph.bootstrap.topButton;rSize=5;perimeter=none;whiteSpace=wrap;fillColor=#868E96;strokeColor=#DFDFDF;fontColor=#DEE2E6;resizeWidth=1;fontSize=18;" vertex="1" parent="tZ3GSh2CdQUmDzRpD9AX-41">
          <mxGeometry width="260" height="160" relative="1" as="geometry" />
        </mxCell>
        <mxCell id="tZ3GSh2CdQUmDzRpD9AX-43" value="Data i czas wydarzenia: 14.06.2025, 15:30" style="html=1;shadow=0;dashed=0;shape=mxgraph.bootstrap.bottomButton;rSize=5;perimeter=none;whiteSpace=wrap;fillColor=#F7F7F7;strokeColor=#DFDFDF;fontColor=#6C767D;resizeWidth=1;fontSize=13;align=left;spacing=20;" vertex="1" parent="tZ3GSh2CdQUmDzRpD9AX-41">
          <mxGeometry y="1" width="260" height="50" relative="1" as="geometry">
            <mxPoint y="-50" as="offset" />
          </mxGeometry>
        </mxCell>
        <mxCell id="tZ3GSh2CdQUmDzRpD9AX-85" value="Szczegóły" style="html=1;shadow=0;dashed=0;shape=mxgraph.bootstrap.rrect;rSize=5;strokeColor=none;strokeWidth=1;fillColor=#6C767D;fontColor=#FFFFFF;whiteSpace=wrap;align=center;verticalAlign=middle;spacingLeft=0;fontStyle=0;fontSize=16;spacing=5;" vertex="1" parent="tZ3GSh2CdQUmDzRpD9AX-41">
          <mxGeometry x="158" y="280" width="90" height="30" as="geometry" />
        </mxCell>
        <mxCell id="tZ3GSh2CdQUmDzRpD9AX-60" value="Szukaj..." style="strokeWidth=1;shadow=0;dashed=0;align=center;html=1;shape=mxgraph.mockup.text.textBox;fontColor=#666666;align=left;fontSize=17;spacingLeft=4;spacingTop=-3;whiteSpace=wrap;strokeColor=#666666;mainText=" vertex="1" parent="1">
          <mxGeometry x="580" y="136" width="210" height="40" as="geometry" />
        </mxCell>
        <mxCell id="tZ3GSh2CdQUmDzRpD9AX-74" value="" style="swimlane;shape=rect;strokeColor=#eeeeee;fillColor=#ffffff;fontColor=#000000;fontStyle=0;childLayout=stackLayout;horizontal=1;startSize=0;horizontalStack=0;resizeParent=1;resizeParentMax=0;resizeLast=0;collapsible=0;marginBottom=0;whiteSpace=wrap;html=1;shadow=1;" vertex="1" parent="1">
          <mxGeometry x="10" y="100" width="130" height="150" as="geometry" />
        </mxCell>
        <mxCell id="tZ3GSh2CdQUmDzRpD9AX-75" value="Sortuj według" style="text;strokeColor=none;align=left;verticalAlign=middle;spacingLeft=10;spacingRight=10;overflow=hidden;points=[[0,0.5],[1,0.5]];portConstraint=eastwest;rotatable=0;whiteSpace=wrap;html=1;shape=mxgraph.bootstrap.topButton;rSize=3;fillColor=none;fontSize=14;fontColor=inherit;" vertex="1" parent="tZ3GSh2CdQUmDzRpD9AX-74">
          <mxGeometry width="130" height="36" as="geometry" />
        </mxCell>
        <mxCell id="tZ3GSh2CdQUmDzRpD9AX-76" value="" style="shape=triangle;direction=south;fillColor=#CCCCCC;strokeColor=none;perimeter=none;sketch=0;" vertex="1" parent="tZ3GSh2CdQUmDzRpD9AX-75">
          <mxGeometry x="1" y="0.5" width="10" height="5" relative="1" as="geometry">
            <mxPoint x="-22" y="-2.5" as="offset" />
          </mxGeometry>
        </mxCell>
        <mxCell id="tZ3GSh2CdQUmDzRpD9AX-77" value="" style="line;strokeWidth=0.25;fillColor=none;align=left;verticalAlign=middle;spacingTop=-1;spacingLeft=3;spacingRight=3;rotatable=0;labelPosition=right;points=[];portConstraint=eastwest;" vertex="1" parent="tZ3GSh2CdQUmDzRpD9AX-74">
          <mxGeometry y="36" width="130" height="8" as="geometry" />
        </mxCell>
        <mxCell id="tZ3GSh2CdQUmDzRpD9AX-78" value="" style="text;strokeColor=none;align=left;verticalAlign=middle;spacingLeft=10;spacingRight=10;overflow=hidden;points=[[0,0.5],[1,0.5]];portConstraint=eastwest;rotatable=0;whiteSpace=wrap;html=1;rSize=5;fillColor=none;fontColor=inherit;fontSize=14;" vertex="1" parent="tZ3GSh2CdQUmDzRpD9AX-74">
          <mxGeometry y="44" width="130" height="6" as="geometry" />
        </mxCell>
        <mxCell id="tZ3GSh2CdQUmDzRpD9AX-79" value="Nazwa" style="text;strokeColor=none;align=left;verticalAlign=middle;spacingLeft=10;spacingRight=10;overflow=hidden;points=[[0,0.5],[1,0.5]];portConstraint=eastwest;rotatable=0;whiteSpace=wrap;html=1;rSize=5;fillColor=#EEEEEE;fontColor=inherit;fontSize=14;" vertex="1" parent="tZ3GSh2CdQUmDzRpD9AX-74">
          <mxGeometry y="50" width="130" height="30" as="geometry" />
        </mxCell>
        <mxCell id="tZ3GSh2CdQUmDzRpD9AX-80" value="Data" style="text;strokeColor=none;align=left;verticalAlign=middle;spacingLeft=10;spacingRight=10;overflow=hidden;points=[[0,0.5],[1,0.5]];portConstraint=eastwest;rotatable=0;whiteSpace=wrap;html=1;rSize=5;fillColor=none;fontColor=inherit;fontSize=14;" vertex="1" parent="tZ3GSh2CdQUmDzRpD9AX-74">
          <mxGeometry y="80" width="130" height="30" as="geometry" />
        </mxCell>
        <mxCell id="tZ3GSh2CdQUmDzRpD9AX-81" value="Popularność" style="text;strokeColor=none;align=left;verticalAlign=middle;spacingLeft=10;spacingRight=10;overflow=hidden;points=[[0,0.5],[1,0.5]];portConstraint=eastwest;rotatable=0;whiteSpace=wrap;html=1;shape=mxgraph.bootstrap.bottomButton;rSize=5;fillColor=none;fontColor=inherit;fontSize=14;" vertex="1" parent="tZ3GSh2CdQUmDzRpD9AX-74">
          <mxGeometry y="110" width="130" height="30" as="geometry" />
        </mxCell>
        <mxCell id="tZ3GSh2CdQUmDzRpD9AX-82" value="" style="text;strokeColor=none;align=left;verticalAlign=middle;spacingLeft=10;spacingRight=10;overflow=hidden;points=[[0,0.5],[1,0.5]];portConstraint=eastwest;rotatable=0;whiteSpace=wrap;html=1;rSize=5;fillColor=none;fontColor=inherit;fontSize=14;" vertex="1" parent="tZ3GSh2CdQUmDzRpD9AX-74">
          <mxGeometry y="140" width="130" height="10" as="geometry" />
        </mxCell>
        <mxCell id="tZ3GSh2CdQUmDzRpD9AX-101" value="&lt;b&gt;&lt;font style=&quot;font-size: 20px&quot;&gt;Siatkówka kobiet - Paryż 13.06&lt;/font&gt;&lt;/b&gt;&lt;div&gt;&lt;br&gt;&lt;/div&gt;&lt;div&gt;Mecz siatkówki między Francją i Wielką Brytanią.&lt;/div&gt;" style="html=1;shadow=0;dashed=0;shape=mxgraph.bootstrap.rrect;rSize=5;strokeColor=#DFDFDF;html=1;whiteSpace=wrap;fillColor=#ffffff;fontColor=#000000;verticalAlign=top;align=left;spacing=20;spacingBottom=0;fontSize=14;spacingTop=160;" vertex="1" parent="1">
          <mxGeometry width="260" height="370" relative="1" as="geometry">
            <mxPoint x="13" y="610" as="offset" />
          </mxGeometry>
        </mxCell>
        <mxCell id="tZ3GSh2CdQUmDzRpD9AX-102" value="Obraz" style="html=1;shadow=0;dashed=0;shape=mxgraph.bootstrap.topButton;rSize=5;perimeter=none;whiteSpace=wrap;fillColor=#868E96;strokeColor=#DFDFDF;fontColor=#DEE2E6;resizeWidth=1;fontSize=18;" vertex="1" parent="tZ3GSh2CdQUmDzRpD9AX-101">
          <mxGeometry width="260" height="160" relative="1" as="geometry" />
        </mxCell>
        <mxCell id="tZ3GSh2CdQUmDzRpD9AX-103" value="Data i czas wydarzenia: 13.06.2025, 13:10" style="html=1;shadow=0;dashed=0;shape=mxgraph.bootstrap.bottomButton;rSize=5;perimeter=none;whiteSpace=wrap;fillColor=#F7F7F7;strokeColor=#DFDFDF;fontColor=#6C767D;resizeWidth=1;fontSize=13;align=left;spacing=20;" vertex="1" parent="tZ3GSh2CdQUmDzRpD9AX-101">
          <mxGeometry y="1" width="260" height="50" relative="1" as="geometry">
            <mxPoint y="-50" as="offset" />
          </mxGeometry>
        </mxCell>
        <mxCell id="tZ3GSh2CdQUmDzRpD9AX-104" value="Szczegóły" style="html=1;shadow=0;dashed=0;shape=mxgraph.bootstrap.rrect;rSize=5;strokeColor=none;strokeWidth=1;fillColor=#6C767D;fontColor=#FFFFFF;whiteSpace=wrap;align=center;verticalAlign=middle;spacingLeft=0;fontStyle=0;fontSize=16;spacing=5;" vertex="1" parent="tZ3GSh2CdQUmDzRpD9AX-101">
          <mxGeometry x="160" y="280" width="90" height="30" as="geometry" />
        </mxCell>
        <mxCell id="tZ3GSh2CdQUmDzRpD9AX-105" value="&lt;b&gt;&lt;font style=&quot;font-size: 20px&quot;&gt;Mecz NBA w Chicaco 12.08&lt;/font&gt;&lt;/b&gt;&lt;div&gt;&lt;br&gt;&lt;/div&gt;&lt;div&gt;Mecz między Chicago Bulls i LA Clippers.&lt;/div&gt;" style="html=1;shadow=0;dashed=0;shape=mxgraph.bootstrap.rrect;rSize=5;strokeColor=#DFDFDF;html=1;whiteSpace=wrap;fillColor=#ffffff;fontColor=#000000;verticalAlign=top;align=left;spacing=20;spacingBottom=0;fontSize=14;spacingTop=160;" vertex="1" parent="1">
          <mxGeometry x="283" y="610" width="260" height="370" as="geometry" />
        </mxCell>
        <mxCell id="tZ3GSh2CdQUmDzRpD9AX-106" value="Obraz" style="html=1;shadow=0;dashed=0;shape=mxgraph.bootstrap.topButton;rSize=5;perimeter=none;whiteSpace=wrap;fillColor=#868E96;strokeColor=#DFDFDF;fontColor=#DEE2E6;resizeWidth=1;fontSize=18;" vertex="1" parent="tZ3GSh2CdQUmDzRpD9AX-105">
          <mxGeometry width="260" height="160" relative="1" as="geometry" />
        </mxCell>
        <mxCell id="tZ3GSh2CdQUmDzRpD9AX-107" value="Data i czas wydarzenia: 12.08.2025, 12:00" style="html=1;shadow=0;dashed=0;shape=mxgraph.bootstrap.bottomButton;rSize=5;perimeter=none;whiteSpace=wrap;fillColor=#F7F7F7;strokeColor=#DFDFDF;fontColor=#6C767D;resizeWidth=1;fontSize=13;align=left;spacing=20;" vertex="1" parent="tZ3GSh2CdQUmDzRpD9AX-105">
          <mxGeometry y="1" width="260" height="50" relative="1" as="geometry">
            <mxPoint y="-50" as="offset" />
          </mxGeometry>
        </mxCell>
        <mxCell id="tZ3GSh2CdQUmDzRpD9AX-108" value="Szczegóły" style="html=1;shadow=0;dashed=0;shape=mxgraph.bootstrap.rrect;rSize=5;strokeColor=none;strokeWidth=1;fillColor=#6C767D;fontColor=#FFFFFF;whiteSpace=wrap;align=center;verticalAlign=middle;spacingLeft=0;fontStyle=0;fontSize=16;spacing=5;" vertex="1" parent="tZ3GSh2CdQUmDzRpD9AX-105">
          <mxGeometry x="158" y="280" width="90" height="30" as="geometry" />
        </mxCell>
        <mxCell id="tZ3GSh2CdQUmDzRpD9AX-109" value="&lt;b&gt;&lt;font style=&quot;font-size: 20px&quot;&gt;Eurowizja 2025&lt;/font&gt;&lt;/b&gt;&lt;div&gt;&lt;br&gt;&lt;/div&gt;&lt;div&gt;&lt;br&gt;&lt;/div&gt;" style="html=1;shadow=0;dashed=0;shape=mxgraph.bootstrap.rrect;rSize=5;strokeColor=#DFDFDF;html=1;whiteSpace=wrap;fillColor=#ffffff;fontColor=#000000;verticalAlign=top;align=left;spacing=20;spacingBottom=0;fontSize=14;spacingTop=160;" vertex="1" parent="1">
          <mxGeometry x="555" y="610" width="260" height="370" as="geometry" />
        </mxCell>
        <mxCell id="tZ3GSh2CdQUmDzRpD9AX-110" value="Obraz" style="html=1;shadow=0;dashed=0;shape=mxgraph.bootstrap.topButton;rSize=5;perimeter=none;whiteSpace=wrap;fillColor=#868E96;strokeColor=#DFDFDF;fontColor=#DEE2E6;resizeWidth=1;fontSize=18;" vertex="1" parent="tZ3GSh2CdQUmDzRpD9AX-109">
          <mxGeometry width="260" height="160" relative="1" as="geometry" />
        </mxCell>
        <mxCell id="tZ3GSh2CdQUmDzRpD9AX-111" value="Data i czas wydarzenia: 13.05.2025, 16:30" style="html=1;shadow=0;dashed=0;shape=mxgraph.bootstrap.bottomButton;rSize=5;perimeter=none;whiteSpace=wrap;fillColor=#F7F7F7;strokeColor=#DFDFDF;fontColor=#6C767D;resizeWidth=1;fontSize=13;align=left;spacing=20;" vertex="1" parent="tZ3GSh2CdQUmDzRpD9AX-109">
          <mxGeometry y="1" width="260" height="50" relative="1" as="geometry">
            <mxPoint y="-50" as="offset" />
          </mxGeometry>
        </mxCell>
        <mxCell id="tZ3GSh2CdQUmDzRpD9AX-112" value="Szczegóły" style="html=1;shadow=0;dashed=0;shape=mxgraph.bootstrap.rrect;rSize=5;strokeColor=none;strokeWidth=1;fillColor=#6C767D;fontColor=#FFFFFF;whiteSpace=wrap;align=center;verticalAlign=middle;spacingLeft=0;fontStyle=0;fontSize=16;spacing=5;" vertex="1" parent="tZ3GSh2CdQUmDzRpD9AX-109">
          <mxGeometry x="158" y="280" width="90" height="30" as="geometry" />
        </mxCell>
        <mxCell id="tZ3GSh2CdQUmDzRpD9AX-113" value="Wyświetlono 6 z 427 wydarzeń" style="text;html=1;align=center;verticalAlign=middle;whiteSpace=wrap;rounded=0;fontColor=#4D4D4D;fontSize=17;" vertex="1" parent="1">
          <mxGeometry x="289" y="132" width="250" height="44" as="geometry" />
        </mxCell>
        <mxCell id="tZ3GSh2CdQUmDzRpD9AX-114" value="&lt;font style=&quot;font-size: 24px;&quot;&gt;Załaduj więcej&lt;/font&gt;" style="html=1;shadow=0;dashed=0;shape=mxgraph.bootstrap.rrect;rSize=5;strokeColor=none;strokeWidth=1;fillColor=#0085FC;fontColor=#FFFFFF;whiteSpace=wrap;align=center;verticalAlign=middle;spacingLeft=0;fontStyle=0;fontSize=16;spacing=5;" vertex="1" parent="1">
          <mxGeometry x="322.5" y="1030" width="167" height="70" as="geometry" />
        </mxCell>
        <mxCell id="tZ3GSh2CdQUmDzRpD9AX-115" value="Sport" style="html=1;shadow=0;dashed=0;shape=mxgraph.bootstrap.checkbox2;labelPosition=right;verticalLabelPosition=middle;align=left;verticalAlign=middle;gradientColor=#DEDEDE;fillColor=#EDEDED;checked=1;spacing=5;checkedFill=#0085FC;checkedStroke=#ffffff;sketch=0;" vertex="1" parent="1">
          <mxGeometry x="180" y="110" width="10" height="10" as="geometry" />
        </mxCell>
        <mxCell id="tZ3GSh2CdQUmDzRpD9AX-116" value="E-Sport" style="html=1;shadow=0;dashed=0;shape=mxgraph.bootstrap.checkbox2;labelPosition=right;verticalLabelPosition=middle;align=left;verticalAlign=middle;gradientColor=#DEDEDE;fillColor=#EDEDED;checked=0;spacing=5;fontColor=#6C767D;checkedFill=#0085FC;checkedStroke=#ffffff;sketch=0;" vertex="1" parent="1">
          <mxGeometry x="180" y="130" width="10" height="10" as="geometry" />
        </mxCell>
        <mxCell id="tZ3GSh2CdQUmDzRpD9AX-119" value="Inne" style="html=1;shadow=0;dashed=0;shape=mxgraph.bootstrap.checkbox2;labelPosition=right;verticalLabelPosition=middle;align=left;verticalAlign=middle;gradientColor=#DEDEDE;fillColor=#EDEDED;checked=1;spacing=5;checkedFill=#0085FC;checkedStroke=#ffffff;sketch=0;" vertex="1" parent="1">
          <mxGeometry x="180" y="149" width="10" height="10" as="geometry" />
        </mxCell>
      </root>
    </mxGraphModel>
  </diagram>
</mxfile>
